<svg xmlns="http://www.w3.org/2000/svg" viewBox="0 0 300 600" fill="#1a0a04">
  <!-- Zeus — majesteitelijk, lange baard, bliksemsschicht, goddelijke gewaden -->
  <!-- Haar (lang, golvend, goddelijk) -->
  <path d="M106 68 Q82 44 78 80 Q76 102 92 112"/>
  <path d="M194 68 Q218 44 222 80 Q224 102 208 112"/>
  <path d="M114 58 Q100 28 106 58"/>
  <path d="M134 50 Q124 20 128 48"/>
  <path d="M166 50 Q176 20 172 48"/>
  <path d="M186 58 Q200 28 194 58"/>
  <!-- Hoofd (majestueus, breed) -->
  <ellipse cx="150" cy="102" rx="42" ry="44"/>
  <!-- Lange goddelijke baard -->
  <path d="M112 128 Q116 152 120 166 Q130 188 150 192 Q170 188 180 166 Q184 152 188 128 L182 142 Q172 178 150 182 Q128 178 118 142Z"/>
  <!-- Snor -->
  <path d="M118 122 Q134 116 150 118 Q166 116 182 122"/>
  <!-- Nek -->
  <rect x="136" y="142" width="28" height="18" rx="5"/>
  <!-- Goddelijke gewaden (himation, wijd en majestueus) -->
  <path d="M82 158 Q96 140 150 138 Q204 140 218 158 L244 490 L56 490Z"/>
  <!-- Plooien in gewaden -->
  <path d="M110 200 L104 420" stroke="#0a0500" stroke-width="3" fill="none"/>
  <path d="M140 196 L136 430" stroke="#0a0500" stroke-width="3" fill="none"/>
  <path d="M160 196 L164 430" stroke="#0a0500" stroke-width="3" fill="none"/>
  <path d="M190 200 L196 420" stroke="#0a0500" stroke-width="3" fill="none"/>
  <!-- Brede schouders (god) -->
  <ellipse cx="86" cy="166" rx="30" ry="16" transform="rotate(-20 86 166)"/>
  <ellipse cx="214" cy="166" rx="30" ry="16" transform="rotate(20 214 166)"/>
  <!-- Linkerarm neer (machtig neerhangend) -->
  <path d="M86 168 L46 210 L38 238 L72 222Z"/>
  <ellipse cx="32" cy="248" rx="16" ry="14"/>
  <!-- Rechterarm omhoog met bliksemschicht -->
  <path d="M214 168 L252 136 L264 112 L228 150Z"/>
  <!-- Bliksemschicht (klassieke zigzag) -->
  <path d="M260 80 L278 104 L264 108 L282 138 L254 112 L270 106Z"/>
  <!-- Sandalen zichtbaar onder gewaden -->
  <path d="M120 486 Q132 504 152 504 Q170 500 174 486Z"/>
  <path d="M126 486 Q150 492 178 486"/>
</svg>
